<?xml version="1.0" standalone="no"?>
<!DOCTYPE svg PUBLIC "-//W3C//DTD SVG 20010904//EN"
 "http://www.w3.org/TR/2001/REC-SVG-20010904/DTD/svg10.dtd">
<svg version="1.0" xmlns="http://www.w3.org/2000/svg"
 width="512.000000pt" height="512.000000pt" viewBox="0 0 512.000000 512.000000"
 preserveAspectRatio="xMidYMid meet">
<metadata>
Created by potrace 1.11, written by Peter Selinger 2001-2013
</metadata>
<g transform="translate(0.000000,512.000000) scale(0.100000,-0.100000)"
fill="#000000" stroke="none">
<path d="M2378 5115 c-1 -1 -39 -5 -82 -9 -44 -4 -82 -9 -85 -11 -4 -2 -34 -7
-66 -10 -109 -13 -388 -87 -490 -130 -16 -7 -48 -20 -70 -28 -132 -50 -336
-161 -481 -262 -333 -233 -599 -529 -793 -883 -33 -62 -61 -115 -61 -117 0 -2
-15 -36 -34 -77 -55 -121 -134 -358 -150 -451 -3 -15 -7 -35 -10 -45 -3 -9 -7
-34 -11 -56 -3 -21 -7 -41 -9 -45 -2 -3 -7 -35 -11 -71 -4 -36 -9 -69 -12 -74
-13 -20 -11 -475 2 -578 77 -599 316 -1092 740 -1522 362 -366 889 -636 1390
-711 22 -4 51 -8 65 -11 105 -19 465 -26 615 -11 830 81 1597 598 1993 1343
71 134 162 344 176 409 1 6 12 42 23 80 27 89 60 235 69 300 3 28 8 58 10 69
19 101 26 452 12 596 -22 214 -71 431 -144 630 l-39 104 52 156 c48 144 84
276 98 360 3 19 10 58 15 85 16 86 21 155 25 325 6 328 -46 514 -162 573 -109
57 -207 72 -463 71 -187 0 -247 -4 -355 -23 -161 -28 -318 -68 -455 -116 -135
-47 -147 -50 -173 -37 -107 53 -426 137 -597 157 -25 3 -56 8 -70 11 -26 6
-456 14 -462 9z"/>
</g>
</svg>
